<svg width="156" height="48" viewBox="0 0 156 48" fill="none" xmlns="http://www.w3.org/2000/svg">
<path d="M1.63392 14.6503C1.64882 14.5577 1.67353 14.4707 1.70805 14.3891C2.00376 13.6894 2.34458 12.9791 2.7305 12.2583C2.75638 12.2077 2.81874 12.1677 2.84816 12.1041C2.95876 11.8594 3.07681 11.6351 3.20231 11.4311C3.64314 10.7166 4.09926 10.0647 4.57068 9.47565C4.71423 9.2976 4.84836 9.12385 4.97308 8.95443C5.10407 8.77637 5.24055 8.60459 5.38253 8.43908C5.87905 7.86177 6.35282 7.35819 6.80385 6.92834C6.89797 6.83892 6.98896 6.74754 7.07681 6.6542C7.1631 6.56321 7.25409 6.47967 7.34978 6.40359C7.50431 6.28044 7.64236 6.14709 7.76394 6.00354C7.78472 5.97889 7.81239 5.96018 7.84395 5.94942C7.95926 5.90863 8.05142 5.83921 8.12045 5.74117C8.17536 5.66351 8.23732 5.59801 8.30635 5.54468C8.59893 5.32112 8.88837 5.10267 9.17467 4.88932C9.1982 4.87206 9.21507 4.8501 9.22526 4.82343C9.23232 4.8046 9.2437 4.79127 9.25939 4.78342C9.50647 4.654 9.72178 4.45045 9.95592 4.2822C12.9476 2.12826 16.3032 0.755573 20.0228 0.164141C20.7805 0.0433451 21.5202 -0.0107785 22.2419 0.00177179C23.1776 0.0174596 24.1287 0.0182445 25.0951 0.00412547C25.9195 -0.0084248 26.6913 0.0405997 27.4106 0.151199C30.6533 0.646934 33.6151 1.71331 36.2962 3.35034C37.2484 3.93236 38.2281 4.64655 39.2353 5.49291C39.6295 5.8247 39.9436 6.15062 40.3119 6.47771C40.4554 6.60478 40.599 6.74401 40.7425 6.8954C41.2147 7.39427 41.7375 7.99002 42.3109 8.68264C44.9794 11.9033 46.6702 15.6786 47.3832 20.0085C47.5087 20.7717 47.5652 21.5372 47.5526 22.3052C47.5377 23.2292 47.5377 24.1956 47.5526 25.2043C47.5636 25.9306 47.5091 26.6578 47.3891 27.3857C47.1545 28.8148 46.8306 30.1624 46.4172 31.4284C44.5935 37.0172 40.8684 41.3847 35.8632 44.3944C33.2826 45.9467 30.4289 46.9531 27.3024 47.4135C26.5854 47.5194 25.8399 47.5661 25.0657 47.5536C24.1299 47.5387 23.2094 47.5379 22.3042 47.5512C21.6971 47.5606 21.0602 47.5136 20.3934 47.41C19.7212 47.3049 19.0572 47.1778 18.4015 47.0288C12.7891 45.7573 8.26635 42.8605 4.83306 38.3385C4.12554 37.4082 3.45606 36.3901 2.82463 35.2841C1.43978 32.8603 0.560871 30.1365 0.142005 27.3657C0.0361126 26.666 -0.0105554 25.9036 0.00199485 25.0784C0.0168983 24.1152 0.0180747 23.139 0.00552447 22.1499C-0.00388823 21.4384 0.045526 20.727 0.153772 20.0155C0.355361 18.6923 0.666375 17.3933 1.08681 16.1187C1.12799 15.9951 1.11857 15.821 1.20093 15.7386C1.22996 15.7088 1.24878 15.6731 1.25741 15.6316C1.29742 15.4233 1.39978 15.2609 1.44567 15.0574C1.46841 14.9593 1.51312 14.866 1.5798 14.7774C1.60834 14.7403 1.62698 14.6966 1.63392 14.6503Z" fill="#222222"/>
<path d="M46.4901 23.7735C46.4901 29.797 44.0973 35.5738 39.838 39.8331C35.5788 44.0924 29.802 46.4852 23.7784 46.4852C17.7549 46.4852 11.9781 44.0924 7.71887 39.8331C3.4596 35.5738 1.06677 29.797 1.06677 23.7735C1.06677 17.75 3.4596 11.9732 7.71887 7.71395C11.9781 3.45469 17.7549 1.06186 23.7784 1.06186C29.802 1.06186 35.5788 3.45469 39.838 7.71395C44.0973 11.9732 46.4901 17.75 46.4901 23.7735Z" fill="white"/>
<path d="M46.0242 23.7794C46.0242 29.6803 43.6801 35.3395 39.5075 39.512C35.335 43.6846 29.6758 46.0287 23.7749 46.0287C17.874 46.0287 12.2148 43.6846 8.0423 39.512C3.86975 35.3395 1.52563 29.6803 1.52563 23.7794C1.52563 17.8785 3.86975 12.2193 8.0423 8.04678C12.2148 3.87423 17.874 1.53012 23.7749 1.53012C29.6758 1.53012 35.335 3.87423 39.5075 8.04678C43.6801 12.2193 46.0242 17.8785 46.0242 23.7794Z" fill="#222222"/>
<path d="M45.6219 23.7724C45.6219 29.5656 43.3205 35.1215 39.2241 39.2179C35.1277 43.3144 29.5717 45.6157 23.7785 45.6157C17.9853 45.6157 12.4294 43.3144 8.33295 39.2179C4.23653 35.1215 1.93518 29.5656 1.93518 23.7724C1.93518 17.9791 4.23653 12.4232 8.33295 8.32678C12.4294 4.23036 17.9853 1.92902 23.7785 1.92902C29.5717 1.92902 35.1277 4.23036 39.2241 8.32678C43.3205 12.4232 45.6219 17.9791 45.6219 23.7724Z" fill="white"/>
<path d="M32.7781 39.4857C32.3934 38.5891 32.4405 37.6879 33.3158 37.1055C34.0324 36.6289 35.1043 36.7925 35.1972 37.8067C35.2125 37.9726 35.2301 38.1703 35.1372 38.3162C35.125 38.3353 35.1088 38.3517 35.0898 38.3642C35.0709 38.3767 35.0494 38.385 35.0271 38.3885C35.0047 38.3921 34.9818 38.3909 34.9601 38.3849C34.9383 38.3789 34.918 38.3683 34.9007 38.3538L34.3759 37.9173C34.3022 37.8561 34.2222 37.8471 34.1359 37.8902C33.7653 38.075 33.5853 38.4715 33.8359 38.835C34.3171 39.5351 35.2313 39.5175 35.8032 38.9433C36.7197 38.0197 36.3503 36.2665 35.0772 35.9171C33.6453 35.5229 32.3581 36.5572 31.5992 37.6549C30.4897 39.2633 29.8696 41.1788 29.2284 43.0519C28.9236 43.9414 28.053 44.558 27.1282 44.6733C26.07 44.8058 25.1593 44.5313 24.3961 43.8497C24.1938 43.6685 24.0384 43.452 23.8561 43.252C23.8465 43.2415 23.8347 43.2333 23.8216 43.2278C23.8086 43.2223 23.7945 43.2197 23.7803 43.2201C23.7661 43.2206 23.7522 43.2241 23.7395 43.2304C23.7268 43.2367 23.7156 43.2456 23.7067 43.2567C22.5312 44.718 21.024 45.1333 19.3074 44.2603C18.8446 44.025 18.5324 43.6532 18.3708 43.1449C17.8378 41.4682 17.2601 39.8151 16.3895 38.3209C15.5835 36.9384 14.1704 35.4253 12.5091 35.9089C11.2572 36.2736 10.8336 37.6337 11.6078 38.6891C11.9498 39.1551 12.3789 39.3755 12.895 39.3504C13.2754 39.3316 13.5449 39.1719 13.7033 38.8715C13.8304 38.6315 13.848 38.1161 13.5574 37.9526C13.1985 37.7502 12.9915 38.0938 12.7632 38.3009C12.7298 38.3311 12.6888 38.3516 12.6446 38.3601C12.6004 38.3687 12.5547 38.3651 12.5124 38.3496C12.4701 38.3341 12.4329 38.3073 12.4047 38.2722C12.3766 38.2371 12.3585 38.1949 12.3526 38.1503C12.2408 37.3031 12.8044 36.7454 13.6268 36.8713C14.9187 37.0666 15.2482 38.3668 14.7775 39.441C14.7061 39.6034 14.7532 39.6524 14.9187 39.5881C15.3046 39.4382 15.7145 39.4159 16.1483 39.521C16.3942 39.581 16.5342 39.8693 16.3236 40.0587C16.0467 40.3081 15.7317 40.4956 15.3788 40.6211C15.2336 40.6721 15.2348 40.7195 15.3823 40.7635C15.5411 40.8105 15.7235 40.7905 15.887 40.8317C16.884 41.0819 17.3664 41.7534 17.3343 42.846C17.3303 42.9982 17.284 43.0123 17.1954 42.8884C16.8817 42.4499 16.5169 42.1028 16.1012 41.8471C15.8314 41.6816 15.476 41.5396 15.0352 41.4212C13.6633 41.0541 12.5373 40.5991 11.6572 40.0563C10.7975 39.5261 10.3912 38.6844 10.4383 37.5314C10.4453 37.3631 10.5324 37.1878 10.6583 37.076C10.7807 36.9686 10.761 36.9246 10.5995 36.9443C10.1618 36.996 9.6982 37.1337 9.26051 37.096C7.59916 36.9572 6.64966 34.4452 6.3061 33.1121C6.1249 32.4085 5.95508 31.9089 5.79663 31.6131C5.5519 31.1551 5.18951 30.7546 4.70947 30.4118C4.53455 30.2863 4.55455 30.2193 4.76947 30.2107C6.26374 30.153 6.53553 31.0554 6.83321 32.252C6.83615 32.2633 6.8425 32.2734 6.85138 32.2809C6.86027 32.2884 6.87125 32.293 6.88284 32.294C6.89443 32.295 6.90605 32.2924 6.91612 32.2866C6.92619 32.2808 6.93422 32.272 6.9391 32.2614C7.06617 31.9767 7.39797 31.0449 7.82742 31.1496C7.86129 31.1575 7.89256 31.1738 7.91829 31.1971C7.94403 31.2204 7.96337 31.2498 7.9745 31.2825C8.14471 31.7704 8.13569 32.2273 7.94744 32.6532C7.88547 32.7937 7.92547 32.8344 8.06745 32.7756C9.02872 32.3779 10.0912 32.4697 10.5524 33.5122C10.9524 34.417 10.5348 35.2582 9.43464 35.2111C9.27384 35.2041 9.19266 35.1213 9.19109 34.9629C9.1903 34.9276 9.20089 34.8958 9.22286 34.8676C9.30836 34.7578 9.40248 34.6499 9.50524 34.544C9.85704 34.1781 9.59113 33.6804 9.09696 33.7616C8.13804 33.9204 7.90155 34.8205 8.44631 35.5394C9.08637 36.3877 10.2806 36.5689 11.1019 35.8995C12.0043 35.1664 11.8208 33.7181 11.1995 32.8439C10.9022 32.425 10.5328 32.0563 10.0912 31.7379C8.57573 30.6436 6.62966 29.9306 4.77888 29.3247C3.93409 29.0482 3.37639 28.6423 3.07754 27.8222C2.50807 26.2514 3.00577 24.8313 4.28825 23.8653C4.30156 23.8552 4.31241 23.8421 4.32 23.8272C4.32759 23.8123 4.33171 23.7959 4.33205 23.7792C4.33239 23.7626 4.32894 23.7461 4.32196 23.7311C4.31499 23.716 4.30467 23.7028 4.29178 23.6924C2.92811 22.577 2.42453 21.0603 3.22343 19.3943C3.52346 18.7683 4.20941 18.3848 4.87772 18.1706C6.49435 17.6529 8.10157 17.0411 9.5323 16.1622C10.7724 15.3998 11.8819 14.3444 11.709 12.8113C11.5419 11.3358 9.94646 10.8028 8.79811 11.6594C8.14275 12.1489 7.87919 12.9489 8.54161 13.5819C8.78242 13.8118 9.05186 13.8612 9.34993 13.7302C9.6629 13.5925 9.75115 13.2066 9.47347 12.9925C9.35032 12.8976 9.26129 12.7771 9.20638 12.6313C9.19369 12.5984 9.18884 12.5631 9.1922 12.5281C9.19556 12.4931 9.20705 12.4593 9.22576 12.4294C9.24447 12.3995 9.26989 12.3743 9.30001 12.3559C9.33013 12.3374 9.36414 12.3262 9.39935 12.323C10.2241 12.2489 10.8383 12.7842 10.6854 13.6396C10.463 14.8856 9.18638 15.2809 8.11922 14.7868C7.96861 14.717 7.91998 14.7605 7.97332 14.9174C8.11843 15.3425 8.12588 15.7982 7.99567 16.2846C7.98807 16.3124 7.97423 16.3382 7.95519 16.36C7.93615 16.3817 7.91241 16.3989 7.88577 16.4101C7.85914 16.4213 7.8303 16.4263 7.80143 16.4248C7.77257 16.4232 7.74444 16.4151 7.71918 16.401C7.34345 16.1916 7.10774 15.8716 7.01205 15.4409C6.95087 15.1656 6.87792 15.1625 6.7932 15.4315C6.72182 15.659 6.663 15.8857 6.61672 16.1116C6.4367 16.9952 5.60603 17.3294 4.77653 17.3294C4.5067 17.3294 4.48434 17.2552 4.70947 17.107C5.50601 16.5846 5.92253 15.9175 6.14137 15.0244C6.46494 13.7067 6.9591 12.2595 7.7533 11.3382C8.22707 10.7891 8.81497 10.4777 9.517 10.404C9.81233 10.3734 10.1194 10.4275 10.4159 10.4593C10.4266 10.4603 10.4373 10.4587 10.4473 10.4548C10.4573 10.4508 10.4661 10.4446 10.4732 10.4366C10.4803 10.4285 10.4855 10.419 10.4882 10.4086C10.4909 10.3982 10.4911 10.3874 10.4889 10.3769C10.2684 9.33916 10.5359 8.47829 11.2913 7.7943C12.2032 6.96951 13.6186 6.48005 14.7493 6.20708C15.8259 5.94706 16.5789 5.53408 17.2284 4.6234C17.2558 4.58496 17.2915 4.5728 17.3354 4.58692C17.3476 4.59054 17.3582 4.59815 17.3657 4.60857C17.3731 4.61899 17.3769 4.63165 17.3766 4.64457C17.3672 5.74508 16.9001 6.42946 15.9753 6.69772C15.7623 6.7589 15.5294 6.74714 15.3341 6.82244C15.2093 6.87107 15.2113 6.91421 15.3399 6.95187C15.7647 7.07776 16.1165 7.24954 16.3789 7.6237C16.4006 7.65478 16.4146 7.69055 16.4199 7.72809C16.4252 7.76563 16.4216 7.80388 16.4093 7.83976C16.397 7.87563 16.3765 7.9081 16.3493 7.93455C16.3222 7.961 16.2892 7.98067 16.253 7.99197C15.8004 8.13081 15.3458 8.11668 14.8893 7.94961C14.7567 7.90098 14.7195 7.94098 14.7775 8.06962C15.2129 9.04501 15.0258 10.1369 13.9786 10.5816C13.4786 10.7946 12.8362 10.7464 12.5255 10.2604C12.349 9.98589 12.2855 9.69959 12.3349 9.40152C12.3412 9.36312 12.3571 9.32697 12.3812 9.29641C12.4053 9.26585 12.4367 9.24188 12.4727 9.22673C12.5086 9.21159 12.5478 9.20575 12.5867 9.20977C12.6255 9.2138 12.6628 9.22755 12.695 9.24974L13.2621 9.64507C13.2974 9.66939 13.3342 9.67213 13.3727 9.65331C14.6316 9.04737 12.9456 7.4378 11.8572 8.5732C11.0642 9.40034 10.9113 10.8475 12.1137 11.4417C13.9351 12.3418 15.4399 10.8146 16.2883 9.38858C17.1107 8.00844 17.6755 6.44005 18.1708 4.92107C18.4602 4.03157 18.8356 3.41622 19.6415 3.10795C21.0668 2.5628 22.2994 2.82439 23.3396 3.89274C23.4627 4.01981 23.5847 4.14727 23.7055 4.27513C23.7183 4.28865 23.7338 4.29922 23.7511 4.30612C23.7684 4.31301 23.787 4.31606 23.8056 4.31505C23.8242 4.31405 23.8423 4.309 23.8587 4.30028C23.8752 4.29156 23.8895 4.27936 23.9008 4.26454C24.722 3.16168 25.792 2.69693 27.1105 2.87028C28.4965 3.05148 29.1907 4.07275 29.5449 5.31876C29.9528 6.7542 30.543 8.13473 31.3156 9.46035C32.2934 11.1405 34.2748 12.7301 36.1185 10.9829C36.2079 10.8981 36.3103 10.7758 36.315 10.6452C36.3538 9.53918 35.8349 7.69547 34.3583 8.28023C33.9147 8.45554 33.5923 8.93088 33.8277 9.39093C33.9865 9.70272 34.3242 9.73567 34.563 9.49918C34.6815 9.38073 34.8129 9.28543 34.9572 9.21327C35.0286 9.17719 35.0874 9.1917 35.1337 9.2568C35.2807 9.46506 35.1878 9.8898 35.109 10.1098C34.9113 10.6558 34.283 10.8181 33.77 10.6393C33.0044 10.3726 32.5954 9.83686 32.5428 9.03207C32.5216 8.71439 32.6511 8.4026 32.7511 8.09786C32.7668 8.05001 32.7703 8.01864 32.7617 8.00374C32.7489 7.98067 32.7279 7.96317 32.7026 7.95451C32.6772 7.94584 32.6493 7.94661 32.624 7.95667C32.2463 8.10845 31.6451 8.16022 31.2533 7.95432C31.0662 7.85666 31.1474 7.57781 31.2792 7.47074C31.5757 7.22836 31.8945 7.05109 32.2357 6.93892C32.3644 6.89656 32.3632 6.85774 32.2322 6.82244C32.0385 6.77067 31.8416 6.72008 31.6416 6.67066C30.6164 6.41416 30.1453 5.74782 30.2285 4.67164C30.2371 4.56653 30.272 4.55712 30.3332 4.6434C30.9497 5.51525 31.7392 5.96941 32.7829 6.21179C33.7571 6.43848 34.6611 6.78165 35.4949 7.2413C36.7409 7.92843 37.4774 9.04972 36.9303 10.5299C36.926 10.5412 36.925 10.5536 36.9273 10.5655C36.9297 10.5775 36.9354 10.5885 36.9438 10.5973C36.9521 10.6062 36.9628 10.6125 36.9746 10.6155C36.9863 10.6186 36.9987 10.6183 37.0103 10.6146C39.0388 10.0028 40.1848 11.4052 40.8201 13.1148C41.0884 13.8365 41.3272 14.5954 41.5367 15.3915C41.7402 16.1681 42.2144 16.674 42.8533 17.1435C43.0188 17.265 42.9988 17.3298 42.7933 17.3376C41.892 17.3682 41.279 16.996 40.9542 16.221C40.8436 15.9586 40.8095 15.6598 40.7554 15.3809C40.7476 15.3394 40.724 15.3103 40.6848 15.2939C40.6715 15.2892 40.6593 15.2899 40.6483 15.2962C40.6162 15.315 40.5954 15.3429 40.586 15.3798C40.4746 15.8096 40.2644 16.1336 39.9553 16.3516C39.7788 16.4756 39.6518 16.4359 39.5741 16.2328C39.4055 15.7935 39.4157 15.3566 39.6047 14.9221C39.6753 14.7589 39.6302 14.7158 39.4694 14.7926C36.8303 16.0492 35.8702 11.9818 38.1846 12.37C38.2202 12.376 38.2536 12.3914 38.2815 12.4145C38.3093 12.4376 38.3305 12.4676 38.3429 12.5016C38.3553 12.5355 38.3585 12.5721 38.3522 12.6077C38.3459 12.6433 38.3303 12.6766 38.3069 12.7042L37.9281 13.1501C37.9136 13.1676 37.903 13.1878 37.8969 13.2095C37.8908 13.2312 37.8894 13.2539 37.8928 13.276C37.9751 13.8208 38.5317 13.9573 38.9329 13.649C39.5306 13.189 39.4976 12.4195 39.0105 11.8935C38.1446 10.9605 36.5091 10.8946 35.9996 12.2583C35.2607 14.2373 36.975 15.661 38.5881 16.5175C39.5561 17.0305 40.5526 17.4608 41.5778 17.8082C42.1536 18.0036 42.7093 18.2012 43.2451 18.4012C43.6898 18.5671 44.064 18.9436 44.2899 19.3602C44.8876 20.4614 44.8746 21.5412 44.251 22.5993C44.0075 23.0111 43.6239 23.3782 43.2533 23.6794C43.2399 23.6899 43.2291 23.7034 43.2217 23.7189C43.2144 23.7343 43.2107 23.7512 43.2109 23.7684C43.2111 23.7855 43.2153 23.8024 43.223 23.8178C43.2308 23.8332 43.242 23.8466 43.2557 23.8571C44.2934 24.6442 44.8946 25.729 44.6782 27.0174C44.5028 28.0587 44.0275 28.9282 43.0039 29.2576C41.2672 29.8177 39.4965 30.4201 37.9975 31.3578C37.5339 31.6473 37.1123 31.9893 36.7327 32.3838C35.9232 33.2251 35.4972 34.4158 36.1079 35.4782C36.4138 36.0116 36.9095 36.2795 37.5951 36.2818C38.5975 36.2854 39.7035 35.51 39.2788 34.3581C39.1298 33.9534 38.8415 33.7553 38.414 33.7639C38.1183 33.7702 37.9614 33.9267 37.9434 34.2334C37.9257 34.5523 38.3587 34.7158 38.3458 35.0029C38.3403 35.1323 38.2712 35.2013 38.1387 35.21C36.522 35.3112 36.5444 33.5345 37.5704 32.8321C38.2069 32.3956 38.7929 32.5109 39.5329 32.7709C39.5443 32.7748 39.5566 32.7754 39.5683 32.7725C39.58 32.7697 39.5906 32.7637 39.599 32.755C39.6074 32.7464 39.6131 32.7356 39.6156 32.7238C39.6181 32.712 39.6171 32.6998 39.6129 32.6885C39.4388 32.2438 39.4208 31.7826 39.5588 31.3049C39.6082 31.1343 39.7741 31.0437 39.9306 31.1649C40.2679 31.4268 40.4789 31.7645 40.5636 32.1779C40.5722 32.2187 40.5942 32.2505 40.6295 32.2732C40.6401 32.2803 40.6523 32.2846 40.665 32.2857C40.6777 32.2868 40.6904 32.2847 40.702 32.2795C40.7137 32.2743 40.7238 32.2663 40.7315 32.2561C40.7392 32.246 40.7442 32.234 40.746 32.2214C40.7766 32.0151 40.8131 31.8175 40.8554 31.6284C41.0884 30.5777 41.9261 30.1518 42.9286 30.2259C42.9376 30.2267 42.9464 30.2292 42.9544 30.2334C42.9625 30.2377 42.9695 30.2435 42.9753 30.2505C42.981 30.2575 42.9852 30.2657 42.9877 30.2744C42.9902 30.2831 42.9909 30.2922 42.9897 30.3012C42.9858 30.3263 42.9733 30.3456 42.9521 30.3589C41.9979 30.9354 41.5355 31.812 41.2919 32.898C41.1021 33.7467 40.7832 34.5844 40.3354 35.4112C39.6694 36.6407 38.8364 37.2808 37.4104 37.109C37.1939 37.0831 37.0974 37.1808 37.1209 37.402C37.3998 40.0375 34.3854 40.9753 32.4216 41.4541C31.5051 41.6777 30.9074 42.1236 30.372 42.8848C30.3422 42.928 30.3022 42.9539 30.252 42.9625C30.2413 42.9645 30.2303 42.9641 30.2198 42.9611C30.2093 42.9582 30.1996 42.9529 30.1916 42.9456C30.1835 42.9383 30.1772 42.9292 30.1732 42.9191C30.1692 42.909 30.1676 42.8981 30.1685 42.8872C30.1904 42.6495 30.2406 42.3848 30.3191 42.093C30.6191 40.9753 31.4521 40.8529 32.4158 40.7152C32.4581 40.7089 32.4781 40.6842 32.4758 40.6411L32.4734 40.6058C32.4734 40.5972 32.4695 40.5929 32.4616 40.5929C31.9086 40.5717 31.4855 40.3524 31.1921 39.9352C31.0541 39.7398 31.1027 39.6081 31.338 39.5398C31.778 39.4135 32.224 39.4316 32.6758 39.5939C32.7927 39.6363 32.8268 39.6002 32.7781 39.4857Z" fill="#222222"/>
<path d="M20.2793 4.994C20.2572 5.0091 20.2384 5.02855 20.2241 5.05117C20.2097 5.07379 20.2002 5.0991 20.196 5.12555C20.1918 5.15199 20.1931 5.17901 20.1997 5.20495C20.2063 5.23089 20.2182 5.2552 20.2346 5.27638C20.4566 5.56739 20.6754 5.8533 20.8911 6.13412C20.9829 6.25413 20.9998 6.38943 20.9417 6.54004C20.744 7.05146 20.4224 7.27345 19.9769 7.20599C19.6177 7.15187 19.3784 6.94047 19.2592 6.57181C19.0145 5.81644 19.1152 5.1752 19.5616 4.64808C20.3652 3.6974 21.7524 3.8986 22.6101 4.68456C23.8408 5.81291 23.2902 7.7531 22.4889 9.05794C22.396 9.20972 22.3183 9.3109 22.1324 9.34267C20.4703 9.62427 18.8607 10.1149 17.3037 10.8146C16.844 11.0209 16.3914 11.2907 15.9459 11.6241C15.9271 11.6382 15.9087 11.6378 15.8906 11.6229C15.8671 11.6025 15.8655 11.5805 15.8859 11.557C16.948 10.3365 17.7037 8.89282 18.1532 7.22599C18.1599 7.20153 18.1735 7.17954 18.1924 7.1627C18.2114 7.14586 18.2348 7.1349 18.2599 7.13116C18.285 7.12741 18.3106 7.13105 18.3337 7.14162C18.3567 7.15219 18.3762 7.16924 18.3897 7.19069C18.4422 7.27462 18.4854 7.36365 18.5191 7.45778C18.6093 7.70643 18.756 7.90802 18.9592 8.06254C19.964 8.82615 21.1782 8.62613 21.8394 7.5472C22.1344 7.06558 22.2493 6.56671 22.1842 6.05058C22.0853 5.27168 21.4135 4.87517 20.6817 4.91988C20.5393 4.92811 20.4052 4.90929 20.2793 4.994Z" fill="white"/>
<path d="M27.2635 5.34581C27.3941 5.17991 27.3011 4.95636 27.0893 4.93283C26.4034 4.85871 25.6292 5.06461 25.448 5.7988C25.1338 7.07775 25.841 8.31669 27.1823 8.48259C28.1765 8.60496 28.8036 8.03079 29.2072 7.18717C29.2129 7.17514 29.2214 7.16464 29.2321 7.15658C29.2427 7.14851 29.2551 7.1431 29.2682 7.1408C29.2813 7.13849 29.2948 7.13936 29.3075 7.14334C29.3203 7.14731 29.3318 7.15427 29.3413 7.16364C29.3688 7.19109 29.3876 7.22247 29.3978 7.25777C29.8865 8.91832 30.6132 10.3071 31.578 11.4241C31.7333 11.6037 31.7102 11.6308 31.5086 11.5052C29.677 10.3702 27.6278 9.65252 25.3609 9.35209C25.3208 9.34694 25.2824 9.33297 25.2484 9.31119C25.2144 9.28942 25.1858 9.26039 25.1644 9.2262C24.5303 8.22375 24.0361 7.05069 24.3043 5.89292C24.6208 4.52808 26.0151 3.69153 27.3458 4.1704C27.8447 4.35003 28.1741 4.69437 28.3342 5.20344C28.5189 5.78821 28.4765 6.85655 27.787 7.1554C27.0882 7.45896 26.2116 6.65888 26.7952 5.93528C26.9607 5.72977 27.1168 5.53328 27.2635 5.34581Z" fill="white"/>
<path d="M37.0245 23.7724C37.0245 27.2864 35.6286 30.6564 33.1438 33.1412C30.659 35.626 27.2889 37.0219 23.7749 37.0219C20.2609 37.0219 16.8909 35.626 14.4061 33.1412C11.9213 30.6564 10.5254 27.2864 10.5254 23.7724C10.5254 20.2584 11.9213 16.8883 14.4061 14.4035C16.8909 11.9187 20.2609 10.5228 23.7749 10.5228C27.2889 10.5228 30.659 11.9187 33.1438 14.4035C35.6286 16.8883 37.0245 20.2584 37.0245 23.7724Z" fill="white"/>
<path d="M33.1312 12.4053C33.6559 12.6607 34.3913 12.5877 34.9561 12.4877C34.9768 12.484 34.9981 12.4857 35.0179 12.4926C35.0378 12.4995 35.0556 12.5113 35.0696 12.527C35.0836 12.5426 35.0934 12.5616 35.0981 12.5821C35.1027 12.6027 35.102 12.624 35.0961 12.6442C34.8655 13.4313 34.9972 14.0443 35.262 14.7856C35.273 14.8154 35.2639 14.837 35.2349 14.8503C35.2263 14.8542 35.2165 14.8558 35.2055 14.855C35.1969 14.8542 35.1898 14.8507 35.1843 14.8444C34.4776 13.9424 33.6591 13.1195 32.7288 12.3759C32.6417 12.3061 32.6535 12.2787 32.7641 12.2936C32.8904 12.3108 33.0127 12.3481 33.1312 12.4053Z" fill="white"/>
<path d="M12.4315 14.4185C12.6025 13.9298 12.6287 13.3682 12.5103 12.7336C12.5047 12.7033 12.5066 12.6721 12.5158 12.6428C12.5251 12.6134 12.5414 12.5867 12.5633 12.5651C12.5853 12.5435 12.6122 12.5276 12.6417 12.5189C12.6713 12.5101 12.7025 12.5087 12.7327 12.5148C13.4025 12.6513 14.0783 12.5838 14.7599 12.3124C14.7655 12.3102 14.7714 12.3092 14.7774 12.3095C14.7833 12.3097 14.7892 12.3112 14.7945 12.3139C14.7998 12.3166 14.8045 12.3203 14.8083 12.3249C14.8121 12.3295 14.8148 12.3349 14.8164 12.3406C14.8211 12.3595 14.816 12.3748 14.8011 12.3865C13.8881 13.116 13.1174 13.8835 12.4891 14.6891C12.3322 14.8899 12.2903 14.8683 12.3632 14.6244C12.3781 14.5765 12.4009 14.5079 12.4315 14.4185Z" fill="white"/>
<path d="M21.3795 16.5516C21.5501 16.7164 21.8266 16.7517 22.0737 16.7375C22.1467 16.7336 22.2098 16.7568 22.2631 16.807L23.3515 17.8435C23.3819 17.8725 23.4063 17.9072 23.4232 17.9456C23.4402 17.984 23.4493 18.0253 23.4502 18.0672C23.4511 18.1091 23.4436 18.1508 23.4283 18.1897C23.413 18.2287 23.3901 18.2642 23.3609 18.2942L22.2325 19.4555C22.2043 19.4845 22.1704 19.5072 22.1329 19.5224C22.0954 19.5375 22.0551 19.5446 22.0147 19.5433C21.9743 19.5419 21.9346 19.5322 21.8981 19.5146C21.8617 19.4971 21.8293 19.4721 21.8031 19.4413C21.5686 19.166 21.3093 18.8895 21.0254 18.6118C20.6383 18.233 20.7818 17.6882 20.39 17.2882C19.5248 16.4034 18.6491 15.5194 17.7627 14.6362C17.3885 14.2632 17.045 14.0902 16.5885 13.8867C16.5547 13.8716 16.5256 13.8479 16.5041 13.8179C16.4825 13.788 16.4694 13.7528 16.4659 13.716C16.4624 13.6793 16.4688 13.6423 16.4843 13.6088C16.4999 13.5753 16.524 13.5465 16.5543 13.5255C16.9254 13.2643 17.2932 13.005 17.658 12.7477C17.8533 12.6089 18.0686 12.7524 18.1216 12.9607C18.2063 13.3003 18.3788 13.6004 18.6393 13.8608C19.5703 14.7934 20.4837 15.6904 21.3795 16.5516Z" fill="#222222"/>
<path d="M28.7695 14.0008C29.1013 13.6808 29.3472 13.2655 29.5201 12.8325C29.5337 12.7987 29.5547 12.7685 29.5816 12.7441C29.6086 12.7196 29.6407 12.7016 29.6756 12.6914C29.7105 12.6812 29.7473 12.6791 29.7831 12.6852C29.8189 12.6913 29.8529 12.7054 29.8825 12.7266L31.0168 13.5408C31.0484 13.5638 31.073 13.5952 31.0876 13.6315C31.1023 13.6678 31.1065 13.7074 31.0998 13.7459C31.093 13.7843 31.0756 13.82 31.0494 13.8489C31.0233 13.8777 30.9896 13.8986 30.952 13.909C30.6014 14.0079 30.3096 14.1714 30.0461 14.4267C28.9158 15.5233 27.9855 16.443 27.2552 17.1858C27.0128 17.4321 26.8603 17.7702 26.7975 18.2001C26.7763 18.3495 26.7222 18.4883 26.6093 18.5919C26.2477 18.9244 25.888 19.2621 25.5303 19.6049C25.5203 19.6145 25.5069 19.6197 25.493 19.6195C25.4792 19.6192 25.4659 19.6136 25.4562 19.6037L24.1361 18.2448C24.0678 18.1734 24.0612 18.0969 24.1161 18.0153C24.5479 17.3647 25.1985 16.7646 25.9621 16.6352C26.1398 16.6058 26.3092 16.4787 26.4316 16.3505C27.1595 15.5873 27.9388 14.804 28.7695 14.0008Z" fill="#222222"/>
<path d="M16.2565 15.2186C16.2832 15.3496 16.342 15.4606 16.433 15.5516C17.4095 16.5313 18.3936 17.527 19.385 18.5389C19.4851 18.6401 19.6333 18.7001 19.7733 18.7189C20.511 18.8213 21.0617 19.4084 21.4994 19.9626C21.5253 19.9955 21.5383 20.0366 21.5359 20.0783C21.5335 20.12 21.5159 20.1592 21.4864 20.1885L20.2063 21.4639C20.1752 21.4949 20.1342 21.5139 20.0905 21.5175C20.0468 21.5212 20.0032 21.5093 19.9674 21.4839C19.3333 21.0297 18.792 20.4426 18.672 19.6814C18.6473 19.5261 18.545 19.3919 18.4426 19.286C17.6723 18.4954 16.7154 17.5498 15.5717 16.4493C15.4956 16.3763 15.4097 16.3261 15.314 16.2987C15.0776 16.2328 14.8799 16.1669 14.7058 15.9798C14.6716 15.9432 14.6531 15.8947 14.654 15.8445C14.6548 15.7943 14.6751 15.7462 14.7105 15.7104L15.6788 14.7397C15.7192 14.6995 15.7737 14.6767 15.8307 14.6763C15.8877 14.6759 15.9425 14.6978 15.9835 14.7374C16.1286 14.8762 16.2196 15.0366 16.2565 15.2186Z" fill="#222222"/>
<path d="M31.0156 15.6998C31.2627 15.4598 31.3098 15.0739 31.5098 14.7844C31.5303 14.755 31.557 14.7305 31.588 14.7127C31.619 14.6949 31.6536 14.6842 31.6892 14.6814C31.7247 14.6786 31.7605 14.6837 31.7938 14.6964C31.8271 14.7092 31.8571 14.7292 31.8816 14.755C32.1522 15.0374 32.4346 15.3198 32.7288 15.6021C32.9147 15.781 32.9323 16.0728 32.6311 16.1493C32.2075 16.2551 31.8522 16.4728 31.5545 16.7846C30.7074 17.6757 29.9183 18.4816 29.1872 19.2025C28.999 19.3892 28.8762 19.6182 28.819 19.8896C28.7166 20.3779 28.4236 20.745 28.0424 21.0603C27.9043 21.1749 27.7843 21.3058 27.6824 21.4533C27.6614 21.4831 27.6341 21.5079 27.6025 21.5259C27.5708 21.544 27.5356 21.5548 27.4993 21.5576C27.463 21.5604 27.4265 21.5551 27.3924 21.5422C27.3584 21.5293 27.3276 21.509 27.3023 21.4827L26.0575 20.1861C26.0369 20.165 26.0244 20.1374 26.022 20.1082C26.0196 20.079 26.0276 20.0499 26.0446 20.0261C26.5175 19.3402 27.1188 18.7613 27.9224 18.6224C28.0283 18.6036 28.1648 18.5236 28.2412 18.446C29.1621 17.518 30.0869 16.6026 31.0156 15.6998Z" fill="#222222"/>
<path d="M42.3686 20.2579C42.3438 20.251 42.3177 20.2501 42.2923 20.2555C42.2669 20.2608 42.2431 20.2721 42.2227 20.2885C41.8897 20.5567 41.3473 21.105 40.892 20.9015C40.4519 20.705 40.2001 20.2002 40.399 19.7473C40.6531 19.1684 41.6826 19.0378 42.1733 19.1695C42.6188 19.2888 42.9608 19.5284 43.1992 19.8884C43.9346 21.0015 43.4934 22.2663 42.4133 22.9476C41.2214 23.7006 39.5954 23.2064 38.46 22.4711C38.2729 22.3499 38.1717 22.1357 38.1446 21.9192C37.8599 19.7198 37.1041 17.6878 35.8773 15.8233C35.8099 15.7206 35.822 15.7096 35.9138 15.7904C36.7923 16.5654 37.774 17.1705 38.8588 17.6059C39.3436 17.8004 39.8413 18.0067 40.3519 18.2247C40.4947 18.2859 40.4931 18.3428 40.3472 18.3954C39.1683 18.8272 38.6541 20.1967 39.3636 21.2603C39.9495 22.1381 41.6097 22.6852 42.3639 21.6427C42.578 21.3474 42.9204 20.4144 42.3686 20.2579Z" fill="white"/>
<path d="M8.08046 18.9825C7.81691 18.6224 7.48746 18.5883 7.1639 18.3506C7.14799 18.3392 7.13571 18.3235 7.12848 18.3053C7.12125 18.2871 7.11938 18.2671 7.12307 18.2478C7.12677 18.2285 7.13588 18.2105 7.14936 18.196C7.16283 18.1815 7.18011 18.1711 7.1992 18.1659C8.8825 17.7102 10.327 16.956 11.5326 15.9033C11.541 15.8964 11.5512 15.892 11.562 15.8904C11.5816 15.8888 11.5949 15.8959 11.602 15.9116C11.6075 15.9233 11.6067 15.9347 11.5996 15.9457C10.3525 17.7929 9.80064 19.8449 9.35118 22.071C9.29 22.3757 9.0382 22.5075 8.77936 22.6487C7.56865 23.3123 6.02849 23.6523 4.89426 22.8111C3.99182 22.1416 3.67885 20.5967 4.46834 19.7202C4.98016 19.1519 5.81553 19.0142 6.52266 19.2413C7.54041 19.5684 7.35686 20.5462 6.56737 20.9685C6.52255 20.9924 6.47206 21.0035 6.42129 21.0008C6.37052 20.9981 6.32137 20.9817 6.27911 20.9533C5.98496 20.7548 5.69474 20.5497 5.40843 20.3379C5.18959 20.1755 4.92486 20.3355 4.9025 20.5956C4.75072 22.3157 6.51443 22.5193 7.62277 21.8122C8.6617 21.1521 8.78289 19.9414 8.08046 18.9825Z" fill="white"/>
<path d="M13.9235 16.5881C14.0564 16.9787 14.2094 17.2976 14.5071 17.6023C15.1565 18.2699 16.0539 19.1676 17.1991 20.2955C17.3968 20.4897 17.5968 20.632 17.878 20.6768C18.147 20.7199 18.3702 20.8183 18.5475 20.9721C18.8753 21.2576 19.1922 21.558 19.4981 21.8733C19.5946 21.973 19.5942 22.0722 19.497 22.171L18.2557 23.437C18.2286 23.4649 18.1926 23.4823 18.1537 23.4864C18.1149 23.4905 18.0756 23.4809 18.0427 23.4594C17.4097 23.0405 16.8273 22.4358 16.6943 21.6945C16.6614 21.5133 16.5586 21.3349 16.3861 21.1592C15.6009 20.3646 14.7808 19.5539 13.9258 18.7272C13.5823 18.3942 13.2575 18.1777 12.8445 18.0318C12.8091 18.0195 12.777 17.9991 12.7509 17.9721C12.7247 17.9452 12.7053 17.9125 12.6941 17.8767C12.6829 17.8409 12.6802 17.803 12.6863 17.7659C12.6924 17.7289 12.7071 17.6938 12.7292 17.6635L13.5658 16.5128C13.5819 16.4905 13.6031 16.4721 13.6278 16.4591C13.6524 16.446 13.6799 16.4386 13.7082 16.4375C13.8156 16.4336 13.8874 16.4838 13.9235 16.5881Z" fill="#222222"/>
<path d="M30.8933 21.6298C30.7395 22.3342 30.2771 22.9433 29.5061 23.457C29.4323 23.5057 29.3645 23.4986 29.3025 23.4359L28.0189 22.1275C28.0042 22.1126 27.9927 22.0949 27.9851 22.0755C27.9774 22.0561 27.9737 22.0353 27.9743 22.0145C27.9748 21.9936 27.9796 21.9731 27.9883 21.9541C27.9969 21.9351 28.0093 21.918 28.0247 21.9039C28.3346 21.6192 28.6597 21.3007 29.0001 20.9485C29.3684 20.5697 29.879 20.7744 30.2661 20.3908C31.227 19.4378 32.1746 18.4808 33.1088 17.52C33.357 17.2623 33.4723 16.9987 33.5747 16.6693C33.6488 16.4328 33.8994 16.374 34.0465 16.5775C34.3156 16.9532 34.574 17.309 34.8219 17.6447C34.8458 17.6772 34.862 17.7147 34.8692 17.7545C34.8764 17.7942 34.8744 17.835 34.8634 17.8738C34.8523 17.9127 34.8326 17.9485 34.8056 17.9785C34.7787 18.0085 34.7452 18.032 34.7078 18.0471C34.2936 18.2153 33.9183 18.4154 33.5947 18.7377C32.6574 19.6688 31.82 20.5148 31.0827 21.2756C30.9854 21.3753 30.9223 21.4933 30.8933 21.6298Z" fill="#222222"/>
<path d="M25.2172 19.7479C25.2421 19.7729 25.256 19.8067 25.256 19.842C25.2559 19.8772 25.2419 19.911 25.2169 19.9359L23.8667 21.2814C23.8544 21.2937 23.8397 21.3034 23.8235 21.3101C23.8074 21.3168 23.7901 21.3202 23.7726 21.3201C23.7552 21.3201 23.7379 21.3166 23.7218 21.3099C23.7057 21.3032 23.691 21.2934 23.6787 21.281L22.3349 19.9325C22.31 19.9076 22.2961 19.8737 22.2961 19.8385C22.2962 19.8032 22.3103 19.7694 22.3352 19.7445L23.6854 18.3991C23.6978 18.3867 23.7124 18.377 23.7286 18.3703C23.7447 18.3637 23.762 18.3603 23.7795 18.3603C23.7969 18.3603 23.8142 18.3638 23.8303 18.3705C23.8465 18.3772 23.8611 18.387 23.8734 18.3994L25.2172 19.7479Z" fill="#222222"/>
<path d="M21.9321 23.3131C21.9069 23.3383 21.8728 23.3524 21.8372 23.3524C21.8017 23.3524 21.7675 23.3383 21.7424 23.3131L20.3796 21.9503C20.3545 21.9252 20.3403 21.8911 20.3403 21.8555C20.3403 21.8199 20.3545 21.7858 20.3796 21.7606L21.749 20.3912C21.7742 20.3661 21.8083 20.3519 21.8439 20.3519C21.8795 20.3519 21.9136 20.3661 21.9387 20.3912L23.3015 21.754C23.3267 21.7791 23.3408 21.8133 23.3408 21.8488C23.3408 21.8844 23.3267 21.9185 23.3015 21.9437L21.9321 23.3131Z" fill="#222222"/>
<path d="M27.1734 21.7599C27.1859 21.7725 27.1959 21.7875 27.2026 21.8039C27.2094 21.8203 27.2129 21.8379 27.2128 21.8557C27.2128 21.8735 27.2093 21.891 27.2025 21.9075C27.1956 21.9239 27.1856 21.9388 27.1731 21.9513L25.8246 23.2951C25.7991 23.3204 25.7647 23.3346 25.7288 23.3345C25.6929 23.3345 25.6585 23.3202 25.6332 23.2947L24.2712 21.9279C24.2586 21.9153 24.2487 21.9004 24.2419 21.884C24.2351 21.8676 24.2317 21.85 24.2317 21.8322C24.2317 21.8144 24.2353 21.7968 24.2421 21.7804C24.2489 21.764 24.2589 21.7491 24.2715 21.7366L25.62 20.3928C25.6454 20.3675 25.6798 20.3533 25.7157 20.3533C25.7516 20.3534 25.786 20.3677 25.8113 20.3931L27.1734 21.7599Z" fill="#222222"/>
<path d="M23.8762 25.2435C23.8656 25.2542 23.8531 25.2627 23.8393 25.2685C23.8255 25.2744 23.8107 25.2775 23.7957 25.2776C23.7807 25.2777 23.7659 25.2749 23.752 25.2693C23.7381 25.2637 23.7254 25.2554 23.7147 25.2449L22.3049 23.8594C22.2942 23.8489 22.2857 23.8364 22.2798 23.8226C22.274 23.8088 22.2709 23.794 22.2708 23.779C22.2706 23.764 22.2734 23.7492 22.2791 23.7353C22.2847 23.7214 22.293 23.7087 22.3035 23.698L23.6807 22.2966C23.6912 22.2859 23.7037 22.2773 23.7175 22.2715C23.7313 22.2656 23.7461 22.2626 23.7611 22.2624C23.7761 22.2623 23.791 22.2651 23.8049 22.2707C23.8188 22.2763 23.8314 22.2846 23.8421 22.2952L25.252 23.6806C25.2626 23.6911 25.2712 23.7036 25.277 23.7174C25.2829 23.7312 25.286 23.746 25.2861 23.761C25.2862 23.776 25.2834 23.7909 25.2778 23.8048C25.2722 23.8187 25.2639 23.8313 25.2534 23.842L23.8762 25.2435Z" fill="#222222"/>
<path d="M19.94 25.2222C19.9282 25.234 19.9142 25.2434 19.8989 25.2499C19.8835 25.2563 19.8669 25.2597 19.8503 25.2597C19.8336 25.2598 19.817 25.2565 19.8016 25.2502C19.7862 25.2439 19.7721 25.2346 19.7603 25.2228L18.3978 23.8698C18.3738 23.846 18.3603 23.8138 18.3602 23.7801C18.3601 23.7464 18.3734 23.714 18.3971 23.6901L19.7551 22.3226C19.7669 22.3107 19.7809 22.3013 19.7963 22.2949C19.8117 22.2884 19.8282 22.2851 19.8449 22.285C19.8616 22.285 19.8781 22.2882 19.8935 22.2945C19.909 22.3009 19.923 22.3102 19.9349 22.3219L21.2974 23.675C21.3213 23.6987 21.3348 23.731 21.3349 23.7647C21.335 23.7984 21.3217 23.8307 21.298 23.8547L19.94 25.2222Z" fill="#222222"/>
<path d="M29.1678 23.696C29.1889 23.7172 29.2009 23.7459 29.2009 23.7759C29.2009 23.8058 29.1889 23.8346 29.1678 23.8558L27.7917 25.2318C27.7705 25.253 27.7418 25.2649 27.7118 25.2649C27.6819 25.2649 27.6531 25.253 27.6319 25.2318L26.2559 23.8558C26.2347 23.8346 26.2228 23.8058 26.2228 23.7759C26.2228 23.7459 26.2347 23.7172 26.2559 23.696L27.6319 22.3199C27.6531 22.2987 27.6819 22.2868 27.7118 22.2868C27.7418 22.2868 27.7705 22.2987 27.7917 22.3199L29.1678 23.696Z" fill="#222222"/>
<path d="M33.8595 29.0399C34.0983 29.2682 34.3995 29.38 34.6984 29.4965C34.7363 29.5111 34.7704 29.5342 34.798 29.5641C34.8256 29.594 34.846 29.6298 34.8576 29.6688C34.8691 29.7077 34.8716 29.7489 34.8648 29.7889C34.8581 29.829 34.8422 29.867 34.8184 29.9L33.9571 31.0943C33.946 31.1095 33.9315 31.122 33.9148 31.1309C33.8982 31.1398 33.8797 31.1448 33.8609 31.1456C33.842 31.1464 33.8232 31.143 33.8058 31.1355C33.7885 31.128 33.773 31.1167 33.7606 31.1025C33.701 31.0343 33.6524 30.957 33.6147 30.8707C33.4547 30.4966 33.2841 30.1683 32.9888 29.8706C31.9824 28.8509 31.0941 27.9669 30.3238 27.2186C30.0634 26.9652 29.7359 26.8374 29.3414 26.835C29.2606 26.8342 29.1661 26.7789 29.0578 26.6691C28.7088 26.3169 28.3538 25.9565 27.993 25.5878C27.976 25.5706 27.9664 25.5475 27.9662 25.5234C27.966 25.4992 27.9752 25.4759 27.9918 25.4584L29.3355 24.063C29.3498 24.0482 29.3669 24.0363 29.3858 24.0282C29.4047 24.0201 29.425 24.0157 29.4456 24.0155C29.4662 24.0153 29.4866 24.0192 29.5057 24.0269C29.5247 24.0347 29.5421 24.0461 29.5567 24.0606L30.7639 25.2831C30.7949 25.3149 30.8133 25.3572 30.8156 25.4019L30.8415 25.9879C30.8431 26.0318 30.8596 26.0698 30.8909 26.102C31.8299 27.0629 32.8194 28.0422 33.8595 29.0399Z" fill="#222222"/>
<path d="M17.5167 26.9809C16.5127 27.9481 15.4816 28.9568 14.4235 30.0071C14.1576 30.2706 14.047 30.626 13.914 30.9719C13.9003 31.0077 13.8772 31.0392 13.847 31.0629C13.8169 31.0866 13.7809 31.1017 13.7428 31.1065C13.7048 31.1114 13.6661 31.1058 13.631 31.0903C13.5959 31.0749 13.5656 31.0502 13.5434 31.0189C13.2924 30.666 13.0296 30.2969 12.7551 29.9118C12.6304 29.7365 12.7551 29.5317 12.9292 29.4635C13.3975 29.28 13.7187 29.0705 14.0917 28.6834C14.8463 27.9006 15.633 27.117 16.4519 26.3326C16.559 26.2302 16.6484 26.0443 16.6708 25.8949C16.7802 25.1384 17.4155 24.5124 18.0568 24.0806C18.1195 24.0383 18.1776 24.0437 18.2309 24.0971L19.5734 25.4396C19.5853 25.4516 19.5946 25.4659 19.6008 25.4817C19.607 25.4974 19.61 25.5143 19.6095 25.5312C19.6091 25.5481 19.6053 25.5647 19.5982 25.5801C19.5912 25.5955 19.5812 25.6093 19.5687 25.6208C19.2345 25.9267 18.8851 26.2314 18.6027 26.5738C18.3698 26.8562 18.0344 26.8797 17.7026 26.8997C17.6327 26.9042 17.5669 26.933 17.5167 26.9809Z" fill="#222222"/>
<path d="M21.9271 27.1859C21.9078 27.2054 21.8815 27.2164 21.854 27.2165C21.8266 27.2166 21.8002 27.2058 21.7807 27.1864L20.3731 25.7886C20.3536 25.7693 20.3426 25.743 20.3425 25.7155C20.3424 25.688 20.3533 25.6617 20.3726 25.6422L21.7588 24.2463C21.7781 24.2268 21.8044 24.2158 21.8319 24.2157C21.8594 24.2156 21.8857 24.2264 21.9052 24.2458L23.3128 25.6436C23.3323 25.6629 23.3433 25.6892 23.3434 25.7167C23.3435 25.7441 23.3327 25.7705 23.3133 25.79L21.9271 27.1859Z" fill="#222222"/>
<path d="M25.7904 27.1764C25.7659 27.2009 25.7327 27.2146 25.6981 27.2146C25.6634 27.2146 25.6302 27.2009 25.6057 27.1764L24.2513 25.8219C24.2268 25.7974 24.213 25.7642 24.213 25.7296C24.213 25.695 24.2268 25.6617 24.2513 25.6372L25.6257 24.2628C25.6502 24.2383 25.6834 24.2246 25.718 24.2246C25.7527 24.2246 25.7859 24.2383 25.8104 24.2628L27.1648 25.6173C27.1893 25.6418 27.2031 25.675 27.2031 25.7096C27.2031 25.7443 27.1893 25.7775 27.1648 25.802L25.7904 27.1764Z" fill="#222222"/>
<path d="M42.6239 27.095C42.7686 26.275 42.3944 25.4949 41.4814 25.3855C40.4578 25.2619 39.4941 25.7478 39.1635 26.7291C38.8011 27.808 39.3682 28.7105 40.3377 29.1964C40.4797 29.2678 40.475 29.3266 40.3236 29.3729C38.8105 29.8353 37.188 30.4883 36.1056 31.6261C35.9087 31.8332 35.8828 31.8139 36.0279 31.5684C37.1527 29.6694 37.8724 27.6182 38.1869 25.4149C38.1932 25.367 38.2132 25.3247 38.2469 25.2878C38.2909 25.24 38.3383 25.1984 38.3893 25.1631C39.2827 24.5364 40.195 24.2242 41.1261 24.2265C42.6921 24.2312 43.9699 25.7125 43.4086 27.3009C43.1098 28.1457 42.2015 28.4999 41.3331 28.3916C41.0547 28.3571 40.8299 28.2681 40.659 28.1245C40.0542 27.6151 40.3436 26.7703 41.0696 26.5985C41.3931 26.522 41.952 27.0668 42.1991 27.2586C42.2353 27.2866 42.2781 27.3049 42.3234 27.3115C42.3687 27.3182 42.4149 27.313 42.4576 27.2966C42.5003 27.2802 42.5381 27.253 42.5672 27.2176C42.5963 27.1823 42.6158 27.1401 42.6239 27.095Z" fill="white"/>
<path d="M5.16364 27.3068C5.20495 27.3247 5.25078 27.3293 5.29482 27.32C5.33886 27.3107 5.37894 27.2881 5.40955 27.2551C5.57035 27.0801 5.73468 26.9303 5.90254 26.8056C7.00618 25.9773 7.95333 27.981 6.44847 28.3422C3.37287 29.0823 3.24463 24.7889 6.00137 24.2877C7.12266 24.0842 8.3016 24.5371 9.21463 25.1878C9.28287 25.2372 9.35112 25.3431 9.3617 25.4266C9.6535 27.6802 10.3936 29.7314 11.5819 31.5802C11.6855 31.741 11.6639 31.7598 11.5172 31.6367C10.663 30.9174 9.70566 30.3405 8.64516 29.9059C8.17061 29.7122 7.69409 29.5302 7.21561 29.36C7.04853 29.3004 7.04736 29.2384 7.21208 29.1741C8.6181 28.6211 8.97343 26.8668 7.8192 25.8996C7.18502 25.369 5.99902 25.0713 5.33542 25.7361C4.95342 26.1197 4.82871 26.5668 4.96127 27.0774C4.98872 27.1841 5.05618 27.2606 5.16364 27.3068Z" fill="white"/>
<path d="M31.8899 31.0166C32.1111 31.2402 32.4476 31.3437 32.73 31.4684C32.7668 31.4846 32.7992 31.5095 32.8242 31.541C32.8492 31.5725 32.8662 31.6096 32.8736 31.6491C32.881 31.6887 32.8787 31.7294 32.8668 31.7679C32.8549 31.8063 32.8338 31.8412 32.8053 31.8696L31.844 32.8321C31.8231 32.8528 31.798 32.8688 31.7704 32.8788C31.7427 32.8889 31.7133 32.8928 31.684 32.8904C31.6548 32.8879 31.6265 32.8791 31.6011 32.8645C31.5757 32.85 31.5538 32.8301 31.5369 32.8062C31.3063 32.4838 31.2757 32.0885 30.978 31.799C30.0266 30.8719 29.0841 29.9287 28.1507 28.9693C27.8954 28.707 27.4624 28.9893 27.1918 28.7211C26.7933 28.3265 26.3921 27.9426 25.9881 27.5692C25.9442 27.5276 25.9434 27.4857 25.9858 27.4433L27.4271 25.9902C27.4608 25.9573 27.4942 25.9573 27.5271 25.9902L28.7413 27.1892C28.7826 27.2301 28.8138 27.2801 28.8323 27.3352C28.8509 27.3904 28.8564 27.4491 28.8484 27.5068L28.8037 27.8245C28.7972 27.8734 28.8023 27.9231 28.8187 27.9695C28.835 28.0159 28.8622 28.0578 28.8978 28.0916C29.8587 28.9999 30.8561 29.9749 31.8899 31.0166Z" fill="#222222"/>
<path d="M18.7191 27.9363C18.676 27.5645 18.8019 27.2135 19.0968 26.8833C19.3839 26.5609 19.6941 26.2632 20.0275 25.9902C20.0407 25.9795 20.0574 25.974 20.0745 25.9749C20.0917 25.9757 20.108 25.9829 20.1204 25.9949L21.5665 27.3986C21.6135 27.4441 21.6139 27.49 21.5676 27.5363L20.3875 28.6976C20.3491 28.736 20.3028 28.7532 20.2487 28.7493C19.8486 28.7211 19.4886 28.8529 19.2109 29.1447C18.3897 30.0075 17.5182 30.8868 16.5965 31.7826C16.3471 32.0249 16.2189 32.3873 16.1047 32.7121C16.0909 32.7521 16.0671 32.7879 16.0356 32.8162C16.0041 32.8445 15.9658 32.8643 15.9245 32.8738C15.8831 32.8834 15.84 32.8823 15.7991 32.8706C15.7582 32.859 15.7208 32.8372 15.6906 32.8074L14.7187 31.8402C14.692 31.8139 14.6726 31.7812 14.6621 31.7452C14.6516 31.7092 14.6505 31.6711 14.6589 31.6346C14.6672 31.598 14.6848 31.5642 14.7099 31.5364C14.735 31.5086 14.7668 31.4876 14.8022 31.4755C15.2776 31.3119 15.6353 31.0943 15.9965 30.7025C16.7809 29.8506 17.6531 29.0172 18.6132 28.2022C18.6956 28.1324 18.7309 28.0438 18.7191 27.9363Z" fill="#222222"/>
<path d="M23.8796 29.1514C23.8565 29.1747 23.8252 29.1879 23.7924 29.1881C23.7596 29.1882 23.7281 29.1754 23.7049 29.1523L22.3233 27.7851C22.3 27.7621 22.2868 27.7307 22.2866 27.698C22.2865 27.6652 22.2993 27.6337 22.3224 27.6104L23.668 26.2506C23.6911 26.2273 23.7224 26.2141 23.7552 26.2139C23.788 26.2137 23.8195 26.2266 23.8428 26.2496L25.2243 27.6168C25.2476 27.6399 25.2608 27.6712 25.261 27.704C25.2612 27.7368 25.2483 27.7683 25.2253 27.7916L23.8796 29.1514Z" fill="#222222"/>
<path d="M26.934 30.0542C28.3475 31.459 29.399 32.4991 30.0885 33.1745C30.2806 33.3627 30.523 33.4902 30.8156 33.5569C31.0768 33.6169 31.2144 33.884 30.9568 34.0675C30.6399 34.2926 30.3034 34.5326 29.9473 34.7876C29.7355 34.9382 29.4743 34.8899 29.4178 34.6005C29.3743 34.3769 29.3213 34.1381 29.1578 33.9722C28.1577 32.9493 27.1756 31.954 26.2116 30.986C25.9057 30.6789 25.4339 30.9707 25.1174 30.6283C24.7573 30.2393 24.3961 29.8636 24.0337 29.5012C23.9961 29.4635 23.9961 29.4263 24.0337 29.3894L25.4492 27.9728C25.4845 27.9375 25.5202 27.9375 25.5562 27.9728L26.7811 29.18C26.8166 29.2147 26.8443 29.2567 26.8623 29.3029C26.8804 29.3492 26.8884 29.3987 26.8858 29.4482L26.8623 29.8659C26.8583 29.9396 26.8823 30.0024 26.934 30.0542Z" fill="#222222"/>
<path d="M20.6476 29.84C20.6923 29.6259 20.677 29.2729 20.8441 29.107C21.212 28.7391 21.5775 28.3803 21.9407 28.0304C22.0167 27.9575 22.092 27.9583 22.1666 28.0328L23.4185 29.2847C23.4407 29.3069 23.4583 29.3333 23.4704 29.3623C23.4824 29.3914 23.4886 29.4225 23.4886 29.4538C23.4886 29.4852 23.4824 29.5163 23.4704 29.5452C23.4583 29.5741 23.4407 29.6003 23.4185 29.6223C23.0663 29.9737 22.7325 30.3008 22.4172 30.6036C22.1136 30.8954 21.6547 30.7189 21.3782 30.9907C20.528 31.8245 19.691 32.647 18.8674 33.458C18.485 33.8357 18.2179 34.2628 18.0144 34.7617C18.0036 34.7882 17.987 34.8119 17.9658 34.8312C17.9446 34.8505 17.9194 34.8647 17.892 34.873C17.8645 34.8812 17.8356 34.8832 17.8073 34.8788C17.779 34.8744 17.7521 34.8637 17.7285 34.8476L16.5307 34.0298C16.509 34.015 16.4907 33.9957 16.4769 33.9734C16.4631 33.951 16.4541 33.926 16.4506 33.8999C16.447 33.8739 16.449 33.8474 16.4563 33.8221C16.4636 33.7969 16.4761 33.7735 16.4931 33.7533C16.7413 33.4604 17.1025 33.5121 17.3602 33.2639C18.387 32.2724 19.3977 31.2707 20.3923 30.2589C20.5017 30.1483 20.6158 29.9918 20.6476 29.84Z" fill="#222222"/>
<path d="M12.2162 32.6556C12.2115 32.6462 12.2127 32.6375 12.2197 32.6297L12.2386 32.6062C12.2437 32.6005 12.25 32.596 12.257 32.593C12.2641 32.59 12.2717 32.5887 12.2794 32.589C12.287 32.5893 12.2945 32.5914 12.3013 32.5949C12.3081 32.5985 12.314 32.6036 12.3186 32.6097C13.0426 33.5823 13.9015 34.4522 14.8953 35.2194C14.9063 35.228 14.9125 35.2394 14.9141 35.2535C14.9157 35.2715 14.9114 35.2833 14.9012 35.2888C14.8918 35.2943 14.8823 35.2947 14.8729 35.29C14.1223 34.9676 13.3504 34.8923 12.5574 35.0641C12.5428 35.0673 12.5276 35.0668 12.5133 35.0623C12.499 35.0579 12.486 35.0499 12.4758 35.0389C12.4656 35.028 12.4584 35.0145 12.455 35C12.4515 34.9854 12.452 34.9702 12.4562 34.9558C12.6876 34.1604 12.6076 33.3937 12.2162 32.6556Z" fill="white"/>
<path d="M35.2385 32.8603C34.9279 33.6133 34.8875 34.3083 35.1173 34.9452C35.1242 34.9645 35.1258 34.9852 35.1217 35.0052C35.1177 35.0253 35.1083 35.0438 35.0945 35.0588C35.0806 35.0739 35.0629 35.0848 35.0433 35.0905C35.0237 35.0962 35.0029 35.0964 34.9832 35.0911C34.4184 34.9417 33.763 34.9088 33.2112 35.1111C33.0591 35.1668 32.901 35.219 32.7371 35.2676C32.6492 35.2935 32.6378 35.2739 32.7029 35.2088C32.9959 34.917 33.3395 34.6817 33.6477 34.3899C34.1878 33.8781 34.6584 33.3545 35.1208 32.7897C35.3185 32.5481 35.3577 32.5717 35.2385 32.8603Z" fill="white"/>
<path d="M20.2686 42.2224C20.1627 42.3648 20.2392 42.5542 20.4075 42.5919C21.424 42.819 22.1571 42.2977 22.1853 41.2835C22.2194 40.0552 21.4158 39.0268 20.1074 39.0645C19.4085 39.0845 18.8214 39.4269 18.5391 40.0516C18.4873 40.1654 18.4292 40.2756 18.3649 40.3823C18.2951 40.4976 18.2394 40.4913 18.1978 40.3634C17.6766 38.7621 16.9954 37.1913 15.8517 36.003C15.6556 35.7983 15.676 35.7739 15.9129 35.93C17.7892 37.16 19.8545 37.9079 22.1088 38.1738C22.1935 38.1832 22.3077 38.242 22.3653 38.3209C23.0018 39.2115 23.4984 40.5199 23.2972 41.5647C23.0956 42.6142 22.4465 43.2504 21.3499 43.4731C20.2557 43.6943 19.1403 43.0496 19.1179 41.8459C19.1085 41.3765 19.2062 40.7976 19.6027 40.5034C20.1733 40.0787 20.7722 40.4305 20.9546 41.0458C20.9938 41.1784 20.9734 41.2961 20.8934 41.3988C20.6926 41.6577 20.4843 41.9322 20.2686 42.2224Z" fill="white"/>
<path d="M27.3447 42.4024C27.333 42.3585 27.3145 42.3185 27.2894 42.2824C27.0871 41.9899 26.8702 41.6902 26.6388 41.3835C26.5963 41.3275 26.5762 41.2575 26.5823 41.187C26.6411 40.487 27.3259 40.0893 27.9272 40.4905C28.0762 40.5901 28.1836 40.7223 28.2495 40.887C28.568 41.691 28.4688 42.3789 27.9519 42.9507C27.3083 43.6626 26.1458 43.712 25.3492 43.1837C24.9641 42.9272 24.67 42.586 24.4668 42.1601C23.9067 40.9835 24.3856 39.6586 25.0186 38.555C25.1692 38.2938 25.2987 38.1856 25.614 38.1385C27.8001 37.8106 29.8034 37.089 31.624 35.9736C31.7118 35.9195 31.722 35.9316 31.6546 36.0101C30.6145 37.2133 29.8787 38.5962 29.4473 40.1587C29.4277 40.2309 29.3951 40.2948 29.3496 40.3505C29.337 40.366 29.3204 40.378 29.3017 40.3851C29.2829 40.3923 29.2626 40.3943 29.2428 40.3911C29.223 40.3879 29.2044 40.3795 29.1889 40.3668C29.1733 40.3541 29.1614 40.3375 29.1543 40.3187C28.8696 39.5782 28.3499 39.1629 27.5954 39.0727C26.1234 38.8986 25.2281 40.1858 25.3845 41.5341C25.4893 42.4401 26.4905 42.8354 27.2847 42.5213C27.3074 42.5121 27.326 42.495 27.337 42.4731C27.3481 42.4513 27.3508 42.4262 27.3447 42.4024Z" fill="white"/>
<path d="M60.3861 16.8483C60.4769 17.4621 61.2052 17.7164 61.7537 17.8272C62.7077 18.0197 63.6309 18.2243 64.5233 18.441C65.7891 18.7479 67.0186 19.4254 67.2783 20.7475C67.8068 23.4427 66.2195 25.0935 63.6134 25.3496C61.8275 25.5252 60.1627 25.3175 58.619 24.7267C58.2425 24.5838 57.9253 24.3707 57.6674 24.0874C57.6124 24.027 57.5756 23.9524 57.5612 23.8721C57.5467 23.7918 57.5552 23.7091 57.5856 23.6334C57.7757 23.1587 58.007 22.7126 58.2794 22.2949C58.3338 22.2124 58.4171 22.1533 58.5128 22.1291C58.6086 22.1049 58.71 22.1174 58.797 22.1641C60.2281 22.9378 61.7119 23.2508 63.2483 23.103C64.0438 23.0268 64.7594 22.5909 64.5596 21.6647C64.4434 21.1216 63.815 20.871 63.341 20.7693C62.5164 20.5913 61.6532 20.4049 60.7512 20.2099C59.1366 19.8649 57.8562 19.1784 57.74 17.375C57.5899 15.0346 58.6856 13.7009 61.0272 13.374C62.7501 13.1331 64.3907 13.3183 65.9489 13.9297C66.2093 14.0327 66.4435 14.1652 66.6518 14.3275C66.7006 14.3654 66.7375 14.4166 66.758 14.4752C66.7786 14.5338 66.7821 14.5972 66.768 14.658C66.6336 15.2271 66.4223 15.7986 66.1342 16.3725C66.1131 16.4141 66.0839 16.4511 66.0483 16.4812C66.0126 16.5113 65.9712 16.5339 65.9266 16.5476C65.8821 16.5613 65.8351 16.5659 65.7887 16.5611C65.7423 16.5563 65.6974 16.5422 65.6565 16.5196C64.4107 15.8349 63.2229 15.4499 61.7555 15.5388C61.0127 15.5824 60.2572 15.9856 60.3861 16.8483Z" fill="#222222"/>
<path d="M151.238 25.0518C151.026 25.0748 150.939 25.1916 150.975 25.4023L151.048 25.8254C151.098 26.1172 151.271 26.2789 151.565 26.3103C152.604 26.4193 153.673 26.3842 154.772 26.205C154.792 26.2017 154.812 26.2024 154.831 26.2072C154.85 26.212 154.868 26.2208 154.884 26.2329C154.899 26.2451 154.912 26.2603 154.921 26.2777C154.931 26.2951 154.936 26.3143 154.938 26.334C154.972 26.7299 154.982 27.1337 154.97 27.5453C154.954 28.101 154.306 28.2209 153.841 28.2572C152.508 28.3577 151.364 28.3305 150.408 28.1755C148.828 27.9213 148.616 26.492 148.565 25.1753C148.564 25.1423 148.551 25.1108 148.529 25.0862C148.507 25.0616 148.476 25.0455 148.443 25.0409C146.202 24.7406 144.865 23.476 144.433 21.247C144.161 19.8461 144.2 18.4126 144.551 16.9463C145.347 13.6174 148.507 13.098 151.402 13.3758C155.37 13.7554 156.253 16.8446 155.944 20.2753C155.686 23.1684 154.139 24.7376 151.238 25.0518Z" fill="#222222"/>
<path d="M98.692 17.6982C98.6823 17.7503 98.6774 17.8029 98.6774 17.8562C98.692 20.1603 98.6992 22.4329 98.6992 24.674C98.6992 25.0251 98.5243 25.2134 98.1744 25.2388C97.5981 25.28 97.0157 25.2709 96.4273 25.2116C96.3319 25.2017 96.2435 25.1569 96.1791 25.0859C96.1148 25.0148 96.0789 24.9224 96.0786 24.8265L96.0259 13.957C96.0247 13.6482 96.1778 13.4842 96.4854 13.4648C97.0217 13.4297 97.6205 13.4242 98.2815 13.4485C98.5745 13.4593 98.807 13.5835 98.9789 13.8208C100.471 15.8706 101.947 17.9216 103.408 19.9738C103.567 20.1966 103.721 20.4315 103.87 20.6785C103.924 20.7681 103.952 20.7602 103.952 20.6549L103.944 13.9588C103.944 13.6404 104.102 13.4678 104.418 13.4412C105.041 13.3891 105.656 13.3891 106.263 13.4412C106.372 13.4503 106.472 13.4997 106.546 13.5797C106.62 13.6597 106.661 13.7645 106.661 13.8734C106.668 17.4621 106.674 21.0429 106.679 24.6159C106.681 24.9839 106.511 25.1855 106.171 25.2206C105.544 25.286 104.94 25.2812 104.36 25.2061C104.295 25.198 104.233 25.1766 104.177 25.1432C104.12 25.1097 104.072 25.065 104.033 25.0118L98.781 17.68C98.7362 17.6159 98.7065 17.6219 98.692 17.6982Z" fill="#222222"/>
<path d="M113.524 17.8689C113.535 17.8894 113.55 17.9067 113.57 17.9191C113.589 17.9314 113.611 17.9383 113.634 17.9391C113.657 17.9398 113.679 17.9344 113.7 17.9233C113.72 17.9122 113.736 17.896 113.748 17.8762C114.592 16.4572 115.397 15.1326 116.163 13.9025C116.292 13.6955 116.536 13.5048 116.784 13.4775C117.442 13.4085 118.137 13.3994 118.871 13.4503C119.035 13.4612 119.151 13.5314 119.222 13.6609C119.235 13.6862 119.242 13.7142 119.243 13.7426C119.244 13.7711 119.238 13.7991 119.225 13.8244C119.119 14.046 118.997 14.2633 118.86 14.4764C117.589 16.4754 116.339 18.4549 115.11 20.4152C115.024 20.552 114.981 20.7003 114.981 20.8601L114.985 24.8502C114.985 24.9521 114.944 25.05 114.872 25.1224C114.8 25.1949 114.702 25.236 114.6 25.237L112.736 25.2479C112.683 25.2481 112.629 25.2379 112.58 25.2176C112.53 25.1974 112.485 25.1676 112.447 25.13C112.409 25.0924 112.378 25.0477 112.358 24.9984C112.337 24.9492 112.326 24.8963 112.326 24.8429L112.293 20.8837C112.292 20.6677 112.23 20.4569 112.115 20.2753C110.74 18.0941 109.484 16.0637 108.354 14.1186C108.189 13.8353 108.239 13.5048 108.617 13.4612C109.449 13.3631 110.176 13.3734 110.798 13.492C110.847 13.5015 110.891 13.5256 110.926 13.5611C111.169 13.8105 111.403 14.1186 111.627 14.4855C112.315 15.6163 112.948 16.7441 113.524 17.8689Z" fill="#222222"/>
<path d="M128.231 20.9818C128.216 20.9868 128.202 20.9952 128.191 21.0064C128.179 21.0176 128.171 21.0311 128.166 21.0461C128.16 21.0611 128.159 21.077 128.16 21.0926C128.162 21.1082 128.168 21.1231 128.177 21.1362C128.924 22.2525 129.616 23.39 130.253 24.5487C130.301 24.6359 130.335 24.7279 130.354 24.8247C130.364 24.8692 130.364 24.9151 130.354 24.9596C130.345 25.004 130.326 25.046 130.299 25.0828C130.272 25.1196 130.238 25.1503 130.198 25.1732C130.159 25.196 130.115 25.2103 130.069 25.2152C129.299 25.2975 128.544 25.2933 127.805 25.2025C127.743 25.1952 127.69 25.1698 127.645 25.1262C127.435 24.924 127.254 24.6903 127.102 24.4252C126.561 23.4796 125.985 22.5031 125.376 21.4958C125.348 21.4487 125.308 21.4098 125.261 21.3827C125.213 21.3557 125.159 21.3414 125.104 21.3414L123.466 21.345C123.442 21.345 123.42 21.3542 123.403 21.3706C123.386 21.3869 123.377 21.4091 123.377 21.4322L123.368 24.8665C123.368 24.9544 123.335 25.0392 123.276 25.1043C123.217 25.1695 123.136 25.2103 123.048 25.2188C122.349 25.2897 121.533 25.3696 120.863 25.1861C120.804 25.1704 120.76 25.1359 120.731 25.0826C120.658 24.9543 120.621 24.8181 120.62 24.674C120.605 21.141 120.601 17.5487 120.605 13.8971C120.605 13.3341 121.283 13.4049 121.742 13.4085C123.338 13.4243 124.882 13.4352 126.373 13.4412C127.014 13.4448 127.611 13.5314 128.166 13.7009C130.311 14.3565 130.834 16.0183 130.625 18.0306C130.468 19.5489 129.67 20.5326 128.231 20.9818Z" fill="#222222"/>
<path d="M77.4742 20.526L72.538 20.5187C72.4968 20.5187 72.4762 20.5387 72.4762 20.5786V24.8302C72.4761 24.9276 72.4406 25.0215 72.3764 25.0944C72.3122 25.1673 72.2237 25.2142 72.1275 25.2261C71.441 25.3133 70.766 25.3109 70.1025 25.2189C69.8483 25.1837 69.7211 25.0348 69.7211 24.7721C69.709 21.2391 69.7048 17.5941 69.7084 13.8371C69.7084 13.7584 69.7366 13.6824 69.7879 13.6227C69.8393 13.563 69.9103 13.5238 69.9881 13.5121C70.6952 13.4067 71.4041 13.4079 72.1148 13.5157C72.2083 13.5299 72.2937 13.5771 72.3557 13.6487C72.4176 13.7202 72.4519 13.8115 72.4526 13.9062L72.4599 17.9707C72.4603 17.9973 72.4713 18.0227 72.4903 18.0414C72.5093 18.0601 72.5349 18.0706 72.5616 18.0705L77.5323 18.1014C77.5511 18.1014 77.5691 18.0942 77.5824 18.0812C77.5957 18.0683 77.6031 18.0507 77.6031 18.0324C77.6104 16.9439 77.5989 15.8228 77.5686 14.6689C77.5577 14.2458 77.496 13.4975 78.0826 13.4594C78.5548 13.4303 79.0252 13.4243 79.4937 13.4412C79.9423 13.4594 80.3927 13.4685 80.3982 14.0278C80.4248 17.2533 80.4248 20.8129 80.3982 24.7067C80.3958 25.0518 80.2275 25.2316 79.8933 25.2461C79.2577 25.2739 78.6311 25.2746 78.0136 25.2479C77.9079 25.2437 77.8079 25.1987 77.7345 25.1222C77.6611 25.0457 77.6199 24.9437 77.6195 24.8375L77.6068 20.6585C77.6068 20.5702 77.5626 20.526 77.4742 20.526Z" fill="#222222"/>
<path d="M90.7864 23.2974C90.7709 23.2598 90.7445 23.2277 90.7106 23.205C90.6766 23.1824 90.6367 23.1703 90.5957 23.1702L85.6867 23.1866C85.6542 23.1872 85.6227 23.1976 85.5964 23.2165C85.5701 23.2353 85.5503 23.2616 85.5396 23.2919C85.3555 23.8138 85.1527 24.3247 84.9312 24.8247C84.8313 25.0499 84.6551 25.2388 84.3918 25.2588C83.7307 25.3084 83.1041 25.3072 82.5121 25.2552C82.466 25.2512 82.4213 25.2372 82.3812 25.214C82.3411 25.1909 82.3066 25.1592 82.2801 25.1213C82.2536 25.0834 82.2357 25.0401 82.2278 24.9945C82.2199 24.9489 82.2221 24.9021 82.2342 24.8574C82.3456 24.4421 82.477 24.0523 82.6283 23.6878C83.9589 20.4817 85.298 17.2763 86.6456 14.0714C86.9198 13.4176 87.3721 13.4067 88.0023 13.4194C88.5507 13.4285 89.5805 13.285 89.8275 13.888C90.9813 16.7114 92.3507 20.058 93.9356 23.9276C94.053 24.2109 94.162 24.5269 94.2625 24.8756C94.2748 24.9187 94.277 24.9641 94.2689 25.0082C94.2607 25.0523 94.2425 25.094 94.2156 25.1298C94.1886 25.1657 94.1538 25.1949 94.1137 25.2151C94.0737 25.2352 94.0295 25.2458 93.9846 25.2461L91.9614 25.257C91.8583 25.2575 91.7574 25.2273 91.6714 25.1704C91.5854 25.1135 91.5182 25.0324 91.4783 24.9373L90.7864 23.2974Z" fill="#222222"/>
<path d="M139.996 23.2502C139.982 23.215 139.958 23.1848 139.927 23.1638C139.895 23.1427 139.858 23.1316 139.82 23.1321L134.946 23.1648C134.899 23.1653 134.853 23.1801 134.815 23.207C134.777 23.234 134.749 23.2719 134.733 23.3155C134.579 23.7514 134.408 24.2085 134.219 24.6867C134.101 24.9846 133.88 25.2443 133.538 25.2661C133.084 25.2933 131.844 25.4077 131.486 25.1226C131.435 25.0838 131.412 25.0324 131.415 24.9682C131.43 24.6897 131.491 24.4204 131.6 24.16C133.084 20.6355 134.444 17.3846 135.683 14.4074C135.817 14.0841 136.044 13.4921 136.473 13.4576C137.12 13.4043 137.78 13.4049 138.454 13.4594C138.892 13.4939 139.048 13.8807 139.194 14.2349C140.591 17.6419 141.968 21.023 143.324 24.378C143.403 24.5765 143.433 24.7781 143.413 24.9827C143.406 25.0469 143.377 25.0972 143.325 25.1335C142.935 25.4095 141.744 25.2915 141.244 25.286C140.952 25.2836 140.748 25.1377 140.632 24.8484C140.404 24.2866 140.193 23.7538 139.996 23.2502Z" fill="#222222"/>
<path d="M149.625 15.5843C151.244 15.4535 152.644 15.7223 153.071 17.5402C153.313 18.5682 153.315 19.6851 153.078 20.891C152.691 22.8488 150.583 23.054 149.021 22.7526C146.769 22.3149 146.841 19.3909 147.199 17.7164C147.472 16.4397 148.26 15.695 149.625 15.5843Z" fill="white"/>
<path d="M123.344 15.784C123.344 15.7638 123.352 15.7444 123.367 15.7301C123.381 15.7158 123.4 15.7077 123.421 15.7077H126.317C126.73 15.7077 127.126 15.8612 127.418 16.1343C127.71 16.4075 127.874 16.778 127.874 17.1643V17.6655C127.874 18.0518 127.71 18.4223 127.418 18.6955C127.126 18.9686 126.73 19.1221 126.317 19.1221H123.421C123.4 19.1221 123.381 19.114 123.367 19.0997C123.352 19.0854 123.344 19.066 123.344 19.0458V15.784Z" fill="white"/>
<path d="M135.768 20.7185L137.387 16.6503C137.392 16.6373 137.4 16.626 137.412 16.6181C137.423 16.6102 137.437 16.6059 137.451 16.6059C137.465 16.6059 137.479 16.6102 137.49 16.6181C137.502 16.626 137.511 16.6373 137.516 16.6503L139.077 20.7421C139.081 20.7525 139.082 20.7638 139.081 20.7748C139.079 20.7859 139.075 20.7964 139.069 20.8055C139.063 20.8146 139.054 20.822 139.044 20.8271C139.034 20.8322 139.023 20.8348 139.012 20.8347L135.832 20.8129C135.821 20.8128 135.81 20.81 135.8 20.8047C135.79 20.7994 135.782 20.7917 135.775 20.7824C135.769 20.7731 135.765 20.7624 135.764 20.7513C135.763 20.7402 135.764 20.7289 135.768 20.7185Z" fill="white"/>
<path d="M86.5765 20.6912L88.1583 16.6884C88.1637 16.6742 88.1734 16.6619 88.186 16.6533C88.1987 16.6448 88.2136 16.6403 88.2289 16.6405C88.2441 16.6407 88.2589 16.6456 88.2713 16.6545C88.2837 16.6634 88.2931 16.6759 88.2981 16.6903L89.8237 20.713C89.8282 20.7244 89.8298 20.7368 89.8284 20.7489C89.8269 20.7611 89.8225 20.7727 89.8155 20.7828C89.8085 20.7929 89.7991 20.801 89.7882 20.8066C89.7773 20.8122 89.7651 20.8149 89.7529 20.8147L86.6455 20.7929C86.6334 20.7929 86.6214 20.7899 86.6108 20.7842C86.6001 20.7785 86.5909 20.7703 86.5841 20.7603C86.5773 20.7502 86.5731 20.7387 86.5717 20.7267C86.5704 20.7147 86.572 20.7025 86.5765 20.6912Z" fill="white"/>
<path d="M84.7768 29.7719C83.925 29.9353 83.945 30.8888 84.7713 31.0686C85.292 31.1812 85.818 31.2878 86.3496 31.3882C87.1959 31.5499 87.8297 32.2327 87.5954 33.1154C87.2594 34.3831 85.476 34.4176 84.4481 34.1488C83.8342 33.989 83.454 33.5888 83.3075 32.9483C83.2869 32.8599 83.3202 32.8042 83.4074 32.7812C83.5672 32.7388 83.721 32.7316 83.8687 32.7594C83.9066 32.7666 83.9421 32.7832 83.9719 32.8076C84.0017 32.832 84.0249 32.8636 84.0394 32.8993C84.3355 33.6384 85.3961 33.7147 86.128 33.6021C86.6819 33.5149 87.047 32.9792 86.7328 32.4707C86.5814 32.2237 86.3302 32.0747 85.9791 32.0239C85.1327 31.9004 83.4674 31.7914 83.3983 30.6109C83.3499 29.7937 83.7464 29.2961 84.5879 29.1181C85.436 28.9365 87.0869 28.8747 87.4392 29.8736C87.4622 29.939 87.458 30.0025 87.4265 30.0643C87.3321 30.2483 87.1765 30.3403 86.9598 30.3403C86.892 30.3415 86.8351 30.3167 86.7891 30.2659C86.3253 29.767 85.6546 29.6024 84.7768 29.7719Z" fill="#222222"/>
<path d="M110.332 29.158L111.005 29.1471C111.024 29.147 111.042 29.1513 111.058 29.1598C111.074 29.1683 111.088 29.1806 111.098 29.1957C111.108 29.2108 111.115 29.2282 111.116 29.2463C111.118 29.2645 111.116 29.2828 111.109 29.2997L109.157 34.0907C109.148 34.1106 109.135 34.1278 109.117 34.1401C109.099 34.1523 109.078 34.1591 109.057 34.1597L108.178 34.1905C108.155 34.1911 108.133 34.1848 108.114 34.1725C108.095 34.1601 108.081 34.1424 108.072 34.1215L106.062 29.2289C106.055 29.2115 106.052 29.1927 106.054 29.1741C106.056 29.1555 106.063 29.1377 106.074 29.1225C106.085 29.1073 106.1 29.095 106.117 29.087C106.133 29.0789 106.152 29.0752 106.171 29.0763L106.836 29.1072C106.857 29.1085 106.877 29.1159 106.894 29.1285C106.911 29.141 106.924 29.1582 106.932 29.178L108.494 33.159C108.502 33.18 108.516 33.198 108.534 33.2107C108.553 33.2235 108.575 33.2303 108.597 33.2303C108.62 33.2303 108.642 33.2235 108.66 33.2107C108.679 33.198 108.693 33.18 108.701 33.159L110.23 29.2289C110.238 29.2083 110.252 29.1905 110.27 29.1779C110.288 29.1653 110.309 29.1584 110.332 29.158Z" fill="#222222"/>
<path d="M120.602 29.8191C119.169 30.1878 119.191 33.0627 120.518 33.4804C121.448 33.771 122.329 33.6058 122.683 32.6051C122.733 32.467 122.831 32.4035 122.977 32.4144L123.33 32.4416C123.5 32.4549 123.557 32.5421 123.499 32.7031C123.179 33.5882 122.576 34.0931 121.69 34.2178C120.736 34.3534 119.99 34.1772 119.452 33.6893C118.608 32.9247 118.399 31.4881 118.797 30.4693C119.363 29.02 121.201 28.7476 122.445 29.3124C122.994 29.5618 123.344 30.0007 123.497 30.6291C123.523 30.7381 123.482 30.801 123.371 30.818L122.97 30.8761C122.922 30.8835 122.873 30.8742 122.831 30.8498C122.788 30.8254 122.756 30.7873 122.738 30.7417C122.382 29.8518 121.67 29.5443 120.602 29.8191Z" fill="#222222"/>
<path d="M92.1394 33.5967L94.9127 33.5876C94.9483 33.5876 94.9827 33.6014 95.0084 33.6261C95.0341 33.6508 95.0493 33.6845 95.0507 33.7202L95.0652 34.0416C95.066 34.0602 95.0629 34.0787 95.0563 34.0961C95.0497 34.1135 95.0397 34.1294 95.0268 34.1428C95.0139 34.1562 94.9984 34.1668 94.9813 34.1741C94.9642 34.1814 94.9458 34.1851 94.9272 34.1851L91.3276 34.2069C91.3093 34.2069 91.2912 34.2033 91.2744 34.1962C91.2575 34.1892 91.2422 34.1788 91.2294 34.1658C91.2165 34.1528 91.2064 34.1374 91.1996 34.1204C91.1927 34.1035 91.1893 34.0853 91.1896 34.0671L91.2295 29.2561C91.23 29.2198 91.2448 29.1852 91.2706 29.1597C91.2964 29.1342 91.3313 29.1199 91.3676 29.1199L94.791 29.1054C94.8273 29.1054 94.8621 29.1197 94.888 29.1452C94.9138 29.1707 94.9285 29.2053 94.929 29.2416L94.9363 29.5939C94.9365 29.6122 94.9331 29.6303 94.9263 29.6473C94.9195 29.6642 94.9093 29.6797 94.8965 29.6927C94.8837 29.7057 94.8684 29.716 94.8515 29.7231C94.8346 29.7301 94.8165 29.7338 94.7983 29.7338L92.1376 29.7465C92.101 29.7465 92.0659 29.761 92.04 29.7869C92.0141 29.8128 91.9996 29.8479 91.9996 29.8845L92.0014 31.1703C92.0019 31.2066 92.0166 31.2413 92.0425 31.2667C92.0683 31.2922 92.1031 31.3065 92.1394 31.3065L94.5313 31.292C94.5497 31.292 94.568 31.2957 94.585 31.3028C94.6019 31.31 94.6173 31.3205 94.6302 31.3337C94.643 31.3469 94.6531 31.3626 94.6599 31.3797C94.6666 31.3969 94.6698 31.4152 94.6693 31.4337L94.6584 31.746C94.657 31.7814 94.6421 31.8148 94.6168 31.8395C94.5914 31.8642 94.5576 31.8782 94.5222 31.8786L92.1158 31.9168C92.0977 31.917 92.0798 31.9208 92.0631 31.9279C92.0465 31.9351 92.0314 31.9455 92.0187 31.9585C92.0061 31.9714 91.9961 31.9868 91.9894 32.0036C91.9827 32.0205 91.9794 32.0385 91.9796 32.0566L92.0014 33.4605C92.0019 33.4968 92.0166 33.5314 92.0425 33.5569C92.0683 33.5824 92.1031 33.5967 92.1394 33.5967Z" fill="#222222"/>
<path d="M102.006 32.2854C102.375 32.8169 102.719 33.4235 103.04 34.1052C103.083 34.1972 103.054 34.2408 102.953 34.2359L102.339 34.2105C102.247 34.2057 102.179 34.1621 102.135 34.0798L101.3 32.487C101.269 32.4279 101.222 32.3786 101.165 32.3443C101.108 32.3101 101.043 32.2922 100.977 32.2927L99.5474 32.3072C99.4796 32.3072 99.4457 32.3417 99.4457 32.4107L99.4566 34.0471C99.4578 34.1693 99.3967 34.2317 99.2732 34.2341L98.8191 34.2432C98.6944 34.2444 98.6315 34.1827 98.6303 34.058L98.6176 29.2343C98.6176 29.1495 98.6599 29.1066 98.7447 29.1054C99.4372 29.1041 100.184 29.1066 100.984 29.1126C101.912 29.1181 102.846 29.3324 102.984 30.4275C103.096 31.3186 102.784 31.8968 102.046 32.1619C101.98 32.1861 101.967 32.2273 102.006 32.2854Z" fill="#222222"/>
<path d="M127.808 29.8772L127.827 31.1848C127.827 31.2182 127.841 31.2501 127.864 31.2736C127.888 31.297 127.92 31.3102 127.954 31.3102L130.375 31.3283C130.392 31.3283 130.409 31.3318 130.425 31.3385C130.44 31.3452 130.455 31.3551 130.466 31.3675C130.478 31.3798 130.488 31.3945 130.494 31.4106C130.5 31.4266 130.502 31.4437 130.502 31.4609L130.485 31.7842C130.484 31.8166 130.47 31.8473 130.447 31.8699C130.424 31.8926 130.393 31.9054 130.36 31.9058L127.919 31.924C127.902 31.9242 127.886 31.9278 127.871 31.9344C127.855 31.941 127.841 31.9505 127.83 31.9625C127.818 31.9745 127.809 31.9887 127.803 32.0042C127.797 32.0197 127.794 32.0363 127.794 32.053L127.814 33.4532C127.814 33.4863 127.828 33.5179 127.851 33.5413C127.874 33.5647 127.906 33.578 127.939 33.5785L130.731 33.5985C130.747 33.5987 130.764 33.6023 130.779 33.609C130.795 33.6157 130.809 33.6255 130.821 33.6376C130.832 33.6498 130.841 33.6642 130.847 33.6799C130.853 33.6956 130.856 33.7124 130.856 33.7292L130.849 34.0562C130.848 34.0892 130.834 34.1206 130.81 34.1437C130.786 34.1668 130.755 34.1797 130.721 34.1796L127.135 34.2033C127.101 34.2033 127.069 34.1899 127.045 34.166C127.021 34.1422 127.007 34.1098 127.007 34.0761L127.009 29.2343C127.009 29.2006 127.023 29.1683 127.046 29.1444C127.07 29.1206 127.103 29.1072 127.136 29.1072L130.634 29.0999C130.651 29.0999 130.668 29.1033 130.683 29.1098C130.699 29.1163 130.713 29.1258 130.725 29.1378C130.737 29.1498 130.746 29.164 130.752 29.1797C130.759 29.1953 130.762 29.212 130.761 29.2289L130.756 29.6084C130.755 29.6418 130.742 29.6737 130.718 29.6972C130.694 29.7206 130.662 29.7337 130.629 29.7337L127.935 29.7483C127.919 29.7483 127.902 29.7516 127.886 29.7581C127.871 29.7646 127.857 29.7742 127.845 29.7862C127.833 29.7982 127.824 29.8124 127.818 29.828C127.811 29.8437 127.808 29.8604 127.808 29.8772Z" fill="#222222"/>
<path d="M115.251 34.0514C115.251 34.0674 115.248 34.0832 115.242 34.098C115.236 34.1127 115.227 34.1261 115.215 34.1374C115.204 34.1487 115.19 34.1576 115.176 34.1637C115.161 34.1698 115.145 34.1729 115.129 34.1729L114.559 34.1719C114.527 34.1718 114.496 34.1589 114.473 34.1361C114.45 34.1132 114.437 34.0823 114.437 34.05L114.446 29.2627C114.446 29.2467 114.449 29.2309 114.455 29.2161C114.461 29.2014 114.47 29.188 114.482 29.1767C114.493 29.1654 114.506 29.1565 114.521 29.1504C114.536 29.1443 114.552 29.1412 114.568 29.1412L115.138 29.1422C115.17 29.1423 115.201 29.1551 115.224 29.178C115.247 29.2008 115.259 29.2318 115.259 29.2641L115.251 34.0514Z" fill="#222222"/>
<path d="M99.4403 29.8918C99.4403 29.8748 99.4436 29.8581 99.4501 29.8424C99.4566 29.8268 99.4661 29.8125 99.4781 29.8006C99.49 29.7886 99.5043 29.7791 99.5199 29.7726C99.5356 29.7661 99.5523 29.7628 99.5693 29.7628L101.276 29.761C101.402 29.7607 101.526 29.7839 101.641 29.8291C101.757 29.8743 101.862 29.9408 101.951 30.0246C102.04 30.1084 102.11 30.208 102.158 30.3176C102.207 30.4273 102.231 30.5448 102.232 30.6636V30.7363C102.232 30.9761 102.132 31.2063 101.954 31.3763C101.775 31.5462 101.533 31.642 101.28 31.6425L99.5729 31.6443C99.5387 31.6443 99.5059 31.6307 99.4817 31.6066C99.4575 31.5824 99.4439 31.5496 99.4439 31.5154L99.4403 29.8918Z" fill="white"/>
<path d="M75.9358 32.9029C75.9358 32.9172 75.933 32.9314 75.9275 32.9446C75.922 32.9578 75.914 32.9698 75.9039 32.98C75.8938 32.9901 75.8818 32.9981 75.8685 33.0036C75.8553 33.0091 75.8412 33.0119 75.8268 33.0119H58.1268C58.1125 33.0119 58.0983 33.0091 58.0851 33.0036C58.0719 32.9981 58.0599 32.9901 58.0497 32.98C58.0396 32.9698 58.0316 32.9578 58.0261 32.9446C58.0206 32.9314 58.0178 32.9172 58.0178 32.9029V32.0094C58.0178 31.9805 58.0293 31.9528 58.0497 31.9323C58.0702 31.9119 58.0979 31.9004 58.1268 31.9004H75.8268C75.8557 31.9004 75.8835 31.9119 75.9039 31.9323C75.9243 31.9528 75.9358 31.9805 75.9358 32.0094V32.9029Z" fill="#222222"/>
<path d="M155.2 32.9436C155.2 32.9556 155.198 32.9674 155.193 32.9784C155.189 32.9894 155.182 32.9994 155.174 33.0078C155.165 33.0162 155.155 33.0229 155.144 33.0274C155.133 33.032 155.121 33.0343 155.109 33.0343L137.776 33.004C137.764 33.004 137.752 33.0016 137.741 32.997C137.73 32.9925 137.72 32.9858 137.712 32.9773C137.704 32.9689 137.697 32.9588 137.692 32.9478C137.688 32.9368 137.686 32.925 137.686 32.9131L137.687 31.9941C137.687 31.9822 137.69 31.9704 137.694 31.9594C137.699 31.9483 137.705 31.9383 137.714 31.9299C137.722 31.9215 137.732 31.9148 137.743 31.9103C137.754 31.9057 137.766 31.9034 137.778 31.9034L155.111 31.9337C155.123 31.9337 155.135 31.9361 155.146 31.9407C155.157 31.9453 155.167 31.952 155.175 31.9604C155.184 31.9689 155.191 31.9789 155.195 31.9899C155.2 32.0009 155.202 32.0128 155.202 32.0247L155.2 32.9436Z" fill="#222222"/>
</svg>
